Patient4_TMGait_0pt5_02_left_26_GRF.mot
version=1
nRows=26
nColumns=19
inDegrees=no
endheader
time	F1x	F1y	F1z	M1x	M1y	M1z	F2x	F2y	F2z	M2x	M2y	M2z	EC1x	EC1y	EC1z	EC2x	EC2y	EC2z
33.21	21.2337	7.3641	-5.2917	1.1417	6.7097	2.6817	-18.2069	763.4305	-66.8666	299.1372	61.0221	617.5115	-0.0592	0.0182	-0.0073	-0.0462	0.0165	0.9585
33.2228	14.1684	5.6963	-3.713	0.57317	4.5712	2.5862	-15.9577	754.2227	-65.069	294.7953	57.8379	608.8009	-0.0592	0.0182	-0.0073	-0.0462	0.0165	0.9585
33.2356	8.2006	4.284	-2.3164	0.070216	2.7234	2.4667	-13.4767	744.7439	-63.2588	290.2788	54.6146	599.4082	-0.0592	0.0182	-0.0073	-0.0462	0.0165	0.9585
33.2484	3.6532	3.2327	-1.2253	-0.33417	1.2968	2.3829	-10.948	736.2181	-61.5708	286.1164	51.5862	590.3704	-0.0592	0.0182	-0.0073	-0.0462	0.0165	0.9585
33.2611	0.5103	2.5331	-0.4486	-0.63173	0.29327	2.3357	-8.5118	729.7868	-60.0802	282.7952	48.8849	582.6615	-0.0592	0.0182	-0.0073	-0.0462	0.0165	0.9585
33.2739	-1.447	2.1297	0.049634	-0.83274	-0.3445	2.3199	-6.2396	726.281	-58.8164	280.6731	46.5526	576.975	-0.0592	0.0182	-0.0073	-0.0462	0.0165	0.9585
33.2867	-2.51	1.9287	0.33323	-0.94831	-0.70744	2.3109	-4.1368	726.1059	-57.8	279.9318	44.5854	573.6443	-0.0592	0.0182	-0.0073	-0.0462	0.0165	0.9585
33.2995	-2.9648	1.8107	0.46412	-0.98345	-0.88356	2.2462	-2.1571	729.2131	-57.0269	280.5684	42.9303	572.6213	-0.0592	0.0182	-0.0073	-0.0462	0.0165	0.9585
33.3123	-3.0752	1.6607	0.49693	-0.93825	-0.95497	2.0776	-0.24282	735.1279	-56.4772	282.4056	41.5218	573.5201	-0.0592	0.0182	-0.0073	-0.0462	0.0165	0.9585
33.3251	-3.0129	1.3405	0.47985	-0.79908	-0.97849	1.7046	1.6612	743.0342	-56.0987	285.1269	40.2804	575.7093	-0.0592	0.0182	-0.0073	-0.0462	0.0165	0.9585
33.3379	-2.9146	0.741	0.44442	-0.54985	-0.99215	1.066	3.5901	751.8501	-55.8391	288.3044	39.1436	578.3812	-0.0592	0.0182	-0.0073	-0.0462	0.0165	0.9585
33.3506	-2.8211	-0.25851	0.41102	-0.16366	-1.0048	0.056334	5.5357	760.3249	-55.624	291.4413	38.0539	580.6245	-0.0592	0.0182	-0.0073	-0.0462	0.0165	0.9585
33.3634	-2.7335	-1.7271	0.38426	0.38212	-1.01	-1.3598	7.4387	767.1995	-55.3856	294.0313	36.9857	581.5609	-0.0592	0.0182	-0.0073	-0.0462	0.0165	0.9585
33.3762	-2.5788	-3.6712	0.36427	1.0917	-0.97992	-3.2	9.209	771.3981	-55.0381	295.639	35.9129	580.4807	-0.0592	0.0182	-0.0073	-0.0462	0.0165	0.9585
33.389	-2.2495	-5.9698	0.34306	1.9248	-0.87233	-5.3578	10.743	772.1546	-54.5055	295.9488	34.8223	576.9194	-0.0592	0.0182	-0.0073	-0.0462	0.0165	0.9585
33.4018	-1.5957	-8.3098	0.31328	2.7707	-0.63232	-7.5522	11.9577	768.9867	-53.7618	294.7564	33.7297	570.617	-0.0592	0.0182	-0.0073	-0.0462	0.0165	0.9585
33.4146	-0.41723	-10.1048	0.26022	3.4198	-0.17952	-9.2589	12.8069	761.7742	-52.8583	291.9985	32.6846	561.5671	-0.0592	0.0182	-0.0073	-0.0462	0.0165	0.9585
33.4274	1.47	-10.4008	0.17045	3.5298	0.56645	-9.6064	13.3101	750.8397	-51.9065	287.7903	31.7474	550.0529	-0.0592	0.0182	-0.0073	-0.0462	0.0165	0.9585
33.4401	4.2368	-7.8419	0.037076	2.6075	1.674	-7.3634	13.554	736.9295	-51.0434	282.4165	30.9665	536.638	-0.0592	0.0182	-0.0073	-0.0462	0.0165	0.9585
33.4529	7.9231	-0.63575	-0.14211	0.0018023	3.1633	-0.86595	13.667	721.0452	-50.3635	276.268	30.345	522.0522	-0.0592	0.0182	-0.0073	-0.0462	0.0165	0.9585
33.4657	12.389	13.3119	-0.35299	-5.0496	4.9708	11.8195	13.7764	704.1782	-49.8965	269.7352	29.851	507.0132	-0.0592	0.0182	-0.0073	-0.0462	0.0165	0.9585
33.4785	17.1221	36.1411	-0.56033	-13.3242	6.8796	32.701	13.9787	687.0177	-49.6018	263.0878	29.4248	492.0333	-0.0592	0.0182	-0.0073	-0.0462	0.0165	0.9585
33.4913	21.1255	69.4983	-0.70014	-25.4206	8.4697	63.3336	14.3118	669.7197	-49.3866	256.385	29.0003	477.2699	-0.0592	0.0182	-0.0073	-0.0462	0.0165	0.9585
33.5041	22.8124	113.8085	-0.6706	-41.4925	9.0764	104.1809	14.7237	651.8783	-49.1029	249.4659	28.5068	462.5103	-0.0592	0.0182	-0.0073	-0.0462	0.0165	0.9585
33.5169	20.5126	167.7001	-0.316	-61.0385	7.961	154.0705	15.1241	632.7262	-48.5654	242.0343	27.868	447.2727	-0.0592	0.0182	-0.0073	-0.0462	0.0165	0.9585
33.5296	13.8592	227.9802	0.59807	-82.8811	4.7755	210.106	15.399	611.4801	-47.5697	233.792	27.0021	431.0491	-0.0592	0.0182	-0.0073	-0.0462	0.0165	0.9585
